<svg id="Capa_1" enable-background="new 0 0 512 512" height="512" viewBox="0 0 512 512" width="512" xmlns="http://www.w3.org/2000/svg"><g fill="#5b5555"><path d="m241 219.03h30v128.68h-30z"/><path d="m168.75 341.61-27.41 12.19-56.42-126.83-4.35-9.78v-2.99l26.31-11.71 4.47 10.06z"/><path d="m175.673 206.233h30v137.068h-30z" transform="matrix(.966 -.26 .26 .966 -64.948 59.103)"/></g><path d="m431.43 214.2v2.99l-4.35 9.78-56.42 126.83-27.41-12.19 57.4-129.06 4.47-10.06z" fill="#463f3f"/><path d="m252.709 259.762h137.068v30h-137.068z" fill="#463f3f" transform="matrix(.26 -.966 .966 .26 -27.664 513.415)"/><path d="m256 219.03h15v128.68h-15z" fill="#463f3f"/><path d="m431.43 175.43v51.54h-26.62l-3-11.08c-.31-1.15-.7-2.27-1.16-3.34-3.95-9.23-13.12-15.41-23.38-15.41-11.45 0-21.53 7.71-24.52 18.75l-3 11.08h-25.8l-3-11.08c-2.99-11.04-13.08-18.75-24.53-18.75-11.44 0-21.53 7.71-24.52 18.75l-3 11.08h-25.8l-3-11.08c-2.99-11.04-13.08-18.75-24.52-18.75-11.45 0-21.54 7.71-24.53 18.75l-3 11.08h-25.8l-3-11.08c-2.99-11.04-13.07-18.75-24.52-18.75-10.26 0-19.43 6.18-23.38 15.41-.46 1.07-.85 2.19-1.16 3.34l-3 11.08h-26.62v-51.54c0-96.73 78.7-175.43 175.43-175.43s175.43 78.7 175.43 175.43z" fill="#60d94d"/><path d="m431.43 175.43v51.54h-26.62l-3-11.08c-.31-1.15-.7-2.27-1.16-3.34-3.95-9.23-13.12-15.41-23.38-15.41-11.45 0-21.53 7.71-24.52 18.75l-3 11.08h-25.8l-3-11.08c-2.99-11.04-13.08-18.75-24.53-18.75-11.44 0-21.53 7.71-24.52 18.75l-3 11.08h-12.9v-226.97c96.73 0 175.43 78.7 175.43 175.43z" fill="#00b863"/><path d="m119.29 332.71h273.42v179.29h-273.42z" fill="#eef5ff"/><circle cx="99.167" cy="225.572" fill="#60d94d" r="18.597"/><circle cx="176.947" cy="225.572" fill="#60d94d" r="18.597"/><circle cx="334.968" cy="225.572" fill="#00b863" r="18.597"/><circle cx="412.833" cy="225.572" fill="#00b863" r="18.597"/><path d="m256 332.71h136.71v179.29h-136.71z" fill="#cadcff"/><path d="m274.55 225.57c0 10.26-8.3 18.58-18.55 18.6h-.04c-10.27 0-18.6-8.33-18.6-18.6s8.33-18.6 18.6-18.6h.04c10.25.02 18.55 8.34 18.55 18.6z" fill="#60d94d"/><path d="m274.55 225.57c0 10.26-8.3 18.58-18.55 18.6v-37.2c10.25.02 18.55 8.34 18.55 18.6z" fill="#00b863"/><path d="m296.43 416.07v30h-25.43v25.43h-30v-25.43h-25.43v-30h25.43v-25.42h30v25.42z" fill="#fe4a4a"/><path d="m296.43 416.07v30h-25.43v25.43h-15v-80.85h15v25.42z" fill="#e80b6a"/></svg>